<svg width="152" height="119" viewBox="0 0 152 119" fill="none" xmlns="http://www.w3.org/2000/svg">
<path fill-rule="evenodd" clip-rule="evenodd" d="M81.9177 5.22849C52.7288 4.82309 41.1584 18.8499 38.9982 24.8984C38.5626 26.1182 37.2982 26.834 36.0281 26.5798C33.7079 26.1155 30.8327 26.0702 28.6583 26.5842C27.5676 26.8421 26.8575 27.1932 26.4697 27.5175C26.1582 27.7779 26.1003 27.9629 26.1003 28.1959C26.1003 29.7866 26.5672 30.1476 26.7655 30.2854C27.1969 30.585 27.9674 30.7811 29.3487 30.8774C29.6684 30.8997 29.9923 30.9159 30.3373 30.9327L30.3917 30.9353C30.7119 30.9509 31.0551 30.9676 31.3896 30.9902C32.0708 31.0364 32.8959 31.1164 33.674 31.3378C34.4546 31.5599 35.4645 32.0008 36.2051 32.9701C36.9816 33.9865 37.1598 35.1809 37.0493 36.2855C36.8304 38.4748 37.2784 43.3679 38.5016 48.9042C39.7166 54.4037 41.5954 60.0694 43.9735 63.8743C46.053 67.2015 50.2129 69.7084 57.1124 71.544C63.965 73.3672 73.0151 74.3998 84.2235 75.1818C95.1068 75.9411 102.919 74.4141 108.694 72.0433C114.465 69.6742 118.359 66.3989 121.346 63.412C122.354 62.4044 123.323 60.7203 124.166 58.4019C124.996 56.1205 125.636 53.4147 126.097 50.5515C127.022 44.8123 127.184 38.7165 126.854 34.6722C126.79 33.8866 127.084 33.1141 127.655 32.5703C128.226 32.0266 129.011 31.7698 129.793 31.8718C131.564 32.1027 134.129 32.0764 136.121 31.4009C137.095 31.0707 137.772 30.6393 138.191 30.1642C138.566 29.7389 138.851 29.1527 138.851 28.1959C138.851 27.2376 138.571 26.8335 138.341 26.6126C138.042 26.3253 137.483 26.0343 136.534 25.8775C134.59 25.5565 132.029 25.9656 130.216 26.5174C128.979 26.8939 127.653 26.3082 127.098 25.1404C124.301 19.2527 111.198 5.63517 81.9177 5.22849ZM34.9437 21.1412C39.2962 12.4376 53.3383 -0.388902 81.9902 0.00904096C110.537 0.40553 125.645 12.7897 130.766 21.0012C132.76 20.5931 135.172 20.3619 137.384 20.7273C138.937 20.9837 140.629 21.5734 141.956 22.8466C143.351 24.1861 144.071 26.0222 144.071 28.1959C144.071 30.3711 143.356 32.1991 142.106 33.6171C140.899 34.9853 139.325 35.8263 137.797 36.3443C135.971 36.9638 133.986 37.1977 132.21 37.2208C132.314 41.3698 132.038 46.4969 131.251 51.3818C130.755 54.4558 130.047 57.5027 129.071 60.186C128.109 62.8323 126.815 65.325 125.037 67.1031C121.76 70.3802 117.303 74.1518 110.676 76.8722C104.054 79.5908 95.4228 81.1958 83.8602 80.3891C72.6229 79.6051 63.1421 78.5498 55.7703 76.5885C48.4455 74.6397 42.6874 71.6656 39.547 66.6409C36.7051 62.0938 34.669 55.7536 33.4045 50.0303C32.2154 44.6478 31.6179 39.3907 31.8143 36.2737C31.6125 36.2453 31.3581 36.22 31.0369 36.1983C30.7534 36.1791 30.4556 36.1646 30.1205 36.1483L30.0835 36.1465C29.7426 36.1299 29.3671 36.1114 28.9854 36.0847C27.5609 35.9854 25.4931 35.7573 23.7875 34.5725C21.8489 33.2258 20.8803 31.0422 20.8804 28.1959C20.8804 26.1993 21.8012 24.6169 23.121 23.5132C24.3644 22.4734 25.9381 21.8635 27.4574 21.5043C29.8007 20.9503 32.5018 20.8799 34.9437 21.1412ZM32.3432 36.3917C32.3431 36.3917 32.3403 36.3906 32.3352 36.3881C32.3408 36.3904 32.3433 36.3916 32.3432 36.3917Z" fill="#462303"/>
<path d="M74.1236 30.8045C76.5997 29.9791 79.5176 27.3245 82.9975 25.0625C86.1295 26.8025 88.7395 29.7605 92.3935 30.8045C93.8992 31.2347 90.8274 36.5382 88.2175 39.1482C85.6075 41.7582 82.9977 44.8902 84.5637 49.0661C85.2468 50.8878 88.2175 52.2063 88.2175 52.7201C88.2174 53.2339 84.9792 55.8521 82.9977 55.8521C80.8455 55.8521 77.7777 53.2339 77.7777 52.7201C77.7778 52.2063 80.9097 51.1623 81.9537 49.0743C83.4484 46.0848 80.5887 41.9593 77.7777 39.1482C73.0797 34.4503 72.5576 31.3264 74.1236 30.8045Z" fill="#462303"/>
<path fill-rule="evenodd" clip-rule="evenodd" d="M58.6195 46.0065C62.1756 44.6729 66.8495 44.7202 68.4973 44.9032C69.0703 44.9669 69.4832 45.4831 69.4196 46.0561C69.3559 46.6292 68.8397 47.0421 68.2667 46.9785C66.7825 46.8135 62.478 46.7895 59.3526 47.9615C56.3356 49.0929 53.4981 51.2271 52.0056 52.3498C51.9275 52.4085 51.853 52.4645 51.7824 52.5175C51.3211 52.8634 50.6668 52.7698 50.3209 52.3085C49.975 51.8472 50.0685 51.1929 50.5298 50.847C50.6056 50.7901 50.6872 50.7287 50.7742 50.6631C52.2531 49.5492 55.3077 47.2484 58.6195 46.0065Z" fill="#462303"/>
<path fill-rule="evenodd" clip-rule="evenodd" d="M65.7779 50.2428C67.1426 49.8596 68.4969 49.5977 69.4259 49.5977C70.0025 49.5977 70.4699 50.0651 70.4699 50.6416C70.4699 51.2182 70.0025 51.6856 69.4259 51.6856C68.789 51.6856 67.6565 51.884 66.3423 52.2531C65.0494 52.6161 63.6788 53.1164 62.5849 53.6634C61.6338 54.1389 60.3937 55.0017 59.2939 55.8427C58.1924 56.685 57.3243 57.4338 57.1142 57.6438C56.7065 58.0515 56.0455 58.0515 55.6378 57.6438C55.2301 57.2361 55.2301 56.5751 55.6378 56.1674C55.9498 55.8554 56.9087 55.0382 58.0256 54.1841C59.1443 53.3286 60.5141 52.3643 61.6511 51.7959C62.8916 51.1756 64.392 50.6319 65.7779 50.2428Z" fill="#462303"/>
<path fill-rule="evenodd" clip-rule="evenodd" d="M106.741 39.1834C103.186 38.2946 100.61 38.6368 97.931 39.1725C97.3656 39.2856 96.999 39.8356 97.112 40.401C97.2251 40.9664 97.7751 41.333 98.3405 41.22C100.882 40.7117 103.108 40.4275 106.234 41.2091C107.767 41.5921 109.232 42.3198 110.392 43.0308C111.563 43.7484 112.351 44.4043 112.535 44.5884C112.943 44.9961 113.604 44.9961 114.012 44.5884C114.42 44.1807 114.42 43.5197 114.012 43.112C113.674 42.7741 112.74 42.0207 111.483 41.2506C110.216 40.4739 108.549 39.6356 106.741 39.1834Z" fill="#462303"/>
<path fill-rule="evenodd" clip-rule="evenodd" d="M58.2108 39.6951C61.7661 38.8063 64.3418 39.1485 67.0206 39.6842C67.586 39.7973 67.9527 40.3473 67.8396 40.9127C67.7265 41.4781 67.1765 41.8448 66.6112 41.7317C64.0701 41.2235 61.8434 40.9392 58.7172 41.7208C57.1849 42.1038 55.7195 42.8315 54.5595 43.5425C53.3887 44.2601 52.6004 44.916 52.4162 45.1001C52.0085 45.5078 51.3475 45.5078 50.9398 45.1001C50.5321 44.6924 50.5321 44.0314 50.9398 43.6237C51.2777 43.2858 52.2119 42.5324 53.4684 41.7623C54.7357 40.9856 56.4022 40.1473 58.2108 39.6951Z" fill="#462303"/>
<path fill-rule="evenodd" clip-rule="evenodd" d="M106.332 44.9596C102.776 43.626 98.1022 43.6733 96.4544 43.8564C95.8813 43.92 95.4684 44.4362 95.5321 45.0093C95.5958 45.5823 96.1119 45.9953 96.685 45.9316C98.1692 45.7667 102.474 45.7426 105.599 46.9146C108.616 48.046 111.454 50.1803 112.946 51.3029C113.024 51.3617 113.099 51.4177 113.169 51.4706C113.631 51.8165 114.285 51.723 114.631 51.2617C114.977 50.8004 114.883 50.146 114.422 49.8001C114.346 49.7432 114.264 49.6818 114.177 49.6163C112.699 48.5023 109.644 46.2015 106.332 44.9596Z" fill="#462303"/>
<path fill-rule="evenodd" clip-rule="evenodd" d="M99.1738 49.192C97.8091 48.8089 96.4548 48.5469 95.5257 48.5469C94.9492 48.5469 94.4818 49.0143 94.4818 49.5909C94.4818 50.1674 94.9492 50.6349 95.5257 50.6349C96.1627 50.6349 97.2951 50.8333 98.6093 51.2023C99.9023 51.5653 101.273 52.0656 102.367 52.6126C103.318 53.0881 104.558 53.9509 105.658 54.7919C106.759 55.6343 107.627 56.383 107.837 56.593C108.245 57.0007 108.906 57.0007 109.314 56.593C109.722 56.1853 109.722 55.5243 109.314 55.1166C109.002 54.8046 108.043 53.9874 106.926 53.1333C105.807 52.2778 104.438 51.3135 103.301 50.7451C102.06 50.1248 100.56 49.5812 99.1738 49.192Z" fill="#462303"/>
<path d="M54.81 32.3731C54.81 33.5263 53.8752 34.4611 52.722 34.4611C51.5689 34.4611 50.634 33.5263 50.634 32.3731C50.634 31.22 51.5689 30.2852 52.722 30.2852C53.8752 30.2852 54.81 31.22 54.81 32.3731Z" fill="#462303"/>
<path fill-rule="evenodd" clip-rule="evenodd" d="M55.854 32.3703C55.854 34.1 54.4518 35.5022 52.7221 35.5022C50.9923 35.5022 49.5901 34.1 49.5901 32.3703C49.5901 30.6405 50.9923 29.2383 52.7221 29.2383C54.4518 29.2383 55.854 30.6405 55.854 32.3703ZM52.7221 34.4582C53.8752 34.4582 54.81 33.5234 54.81 32.3703C54.81 31.2171 53.8752 30.2823 52.7221 30.2823C51.5689 30.2823 50.6341 31.2171 50.6341 32.3703C50.6341 33.5234 51.5689 34.4582 52.7221 34.4582Z" fill="#462303"/>
<path d="M114.318 32.3731C114.318 33.5263 113.383 34.4611 112.23 34.4611C111.076 34.4611 110.142 33.5263 110.142 32.3731C110.142 31.22 111.076 30.2852 112.23 30.2852C113.383 30.2852 114.318 31.22 114.318 32.3731Z" fill="#462303"/>
<path fill-rule="evenodd" clip-rule="evenodd" d="M115.362 32.3703C115.362 34.1 113.959 35.5022 112.23 35.5022C110.5 35.5022 109.098 34.1 109.098 32.3703C109.098 30.6405 110.5 29.2383 112.23 29.2383C113.959 29.2383 115.362 30.6405 115.362 32.3703ZM112.23 34.4582C113.383 34.4582 114.318 33.5234 114.318 32.3703C114.318 31.2171 113.383 30.2823 112.23 30.2823C111.076 30.2823 110.142 31.2171 110.142 32.3703C110.142 33.5234 111.076 34.4582 112.23 34.4582Z" fill="#462303"/>
<path fill-rule="evenodd" clip-rule="evenodd" d="M128.268 34.5752C129.357 33.6311 131.006 33.7489 131.95 34.8382C133.954 37.1509 135.522 40.3708 136.765 43.8291C138.022 47.327 139.015 51.2637 139.781 55.1622C141.31 62.9421 141.983 70.8109 141.983 75.1752C141.983 84.977 140.373 97.1679 135.553 110.021C135.047 111.371 133.543 112.055 132.193 111.549C130.843 111.043 130.159 109.538 130.666 108.188C135.242 95.9861 136.763 84.4244 136.763 75.1752C136.763 71.1876 136.131 63.6575 134.659 56.169C133.925 52.4334 132.993 48.7684 131.852 45.5946C130.697 42.3812 129.394 39.8591 128.005 38.2569C127.061 37.1676 127.179 35.5192 128.268 34.5752Z" fill="#462303"/>
<path fill-rule="evenodd" clip-rule="evenodd" d="M37.067 55.7259C38.5171 56.893 39.75 58.5904 40.7994 60.1643C41.7588 61.6035 46.8718 68.253 50.9132 72.2944C52.3816 73.7628 56.4172 76.7113 61.1756 79.8892C65.8537 83.0135 70.9469 86.1738 74.3372 88.0384C75.6002 88.7331 76.0609 90.3201 75.3663 91.5831C74.6716 92.8461 73.0846 93.3069 71.8216 92.6122C68.2519 90.6489 63.0227 87.3999 58.2765 84.2301C53.6107 81.114 49.1205 77.8839 47.2221 75.9855C42.9116 71.675 37.5847 64.7527 36.4562 63.0599C35.4175 61.502 34.5624 60.4107 33.7941 59.7923C33.1228 59.252 32.8657 59.3243 32.676 59.3883C32.1878 59.553 31.624 59.87 31.3114 60.2355C31.1787 60.3907 31.1239 60.5156 31.1014 60.6201C31.0809 60.715 31.0572 60.9258 31.1858 61.3115C31.2534 61.5142 31.3204 61.7225 31.3703 61.9068C31.3946 61.9966 31.4286 62.1303 31.4544 62.2816C31.4548 62.284 31.4553 62.2867 31.4559 62.2899C31.4713 62.3788 31.5405 62.7766 31.4557 63.2528C31.4107 63.5052 31.2677 64.1094 30.7326 64.6493C30.0864 65.3014 29.2588 65.4794 28.6035 65.4134C28.0642 65.3591 27.6812 65.1518 27.5281 65.0623C27.3442 64.9549 27.2088 64.8463 27.1338 64.783C26.903 64.5879 26.7139 64.3593 26.6539 64.2867C26.6507 64.2829 26.6478 64.2795 26.6454 64.2765C26.5621 64.1762 26.4783 64.0724 26.3917 63.9651C26.0867 63.5869 25.7474 63.1661 25.2728 62.7114C24.6708 62.1345 24.0578 61.7197 23.4753 61.5432C22.9905 61.3963 22.4104 61.3703 21.6077 61.8082C20.4313 62.4498 20.1395 63.0133 20.0642 63.2802C19.9911 63.5394 19.9688 64.0614 20.508 64.96C20.6152 65.1388 20.7209 65.3211 20.8087 65.4903C20.8105 65.4937 20.8126 65.4978 20.8151 65.5025C20.8662 65.6 21.0617 65.9731 21.1452 66.4238C21.1456 66.4264 21.1463 66.4297 21.147 66.4335C21.1751 66.58 21.3704 67.5992 20.6353 68.5444C19.6663 69.7902 18.2763 69.5628 17.979 69.4972C17.5822 69.4095 17.2931 69.2486 17.2047 69.1991C17.0757 69.1268 16.9687 69.0548 16.8999 69.0068C16.7093 68.8739 16.4598 68.6734 16.2726 68.5229C16.2367 68.494 16.2031 68.467 16.1726 68.4426C15.9299 68.2487 15.6675 68.0428 15.3828 67.8395C14.7806 67.4094 14.2286 67.1012 13.7875 66.971C13.5881 66.9121 13.4808 66.9112 13.4466 66.9136C11.9975 67.8811 11.9742 68.338 11.9699 68.4234C11.9697 68.4273 11.9695 68.4305 11.9693 68.4328C11.9501 68.6083 11.9622 68.889 12.0685 69.462C12.0928 69.5934 12.136 69.8032 12.1872 70.0518C12.2852 70.5275 12.4124 71.145 12.4925 71.6257C12.5781 72.1395 12.9817 73.4857 13.7047 75.504C14.3975 77.4382 15.3116 79.7951 16.3104 82.2101C18.3437 87.1267 20.6049 91.9823 22.0079 94.0871C23.214 95.8964 24.9472 98.0077 26.5928 99.8116C28.3055 101.689 29.6751 102.959 30.1575 103.281C31.3569 104.081 31.681 105.701 30.8814 106.9C30.0818 108.1 28.4614 108.424 27.262 107.624C26.1784 106.902 24.4165 105.171 22.7364 103.33C20.9894 101.415 19.0687 99.0889 17.6645 96.9824C15.9359 94.3893 13.499 89.0709 11.4867 84.205C10.4625 81.7287 9.51692 79.2922 8.79049 77.2643C8.0942 75.3206 7.51894 73.5361 7.34357 72.4839C7.26609 72.019 7.20003 71.7078 7.12796 71.3682C7.07069 71.0984 7.00963 70.8107 6.93603 70.4139C6.80506 69.7078 6.67602 68.8187 6.78026 67.8654C7.02124 65.6617 8.37122 64.0235 10.5585 62.5654C12.1002 61.5376 13.7453 61.5685 15.0301 61.8996C15.0334 61.8875 15.0368 61.8753 15.0402 61.8632C15.6174 59.8168 17.1525 58.2923 19.1081 57.2256C21.1764 56.0974 23.2063 56.0074 24.9889 56.5475C25.6959 56.7617 26.3372 57.0663 26.9099 57.4112C27.0448 57.2127 27.1902 57.0232 27.3442 56.843C28.4878 55.5057 30.012 54.778 31.0076 54.4421C33.4279 53.6257 35.5198 54.4805 37.067 55.7259ZM16.1754 67.8945C16.2 67.942 16.1918 67.9329 16.1683 67.8811C16.1712 67.8865 16.1735 67.8909 16.1754 67.8945ZM30.6822 60.9666C30.6929 60.9783 30.6988 60.9852 30.699 60.9857C30.6993 60.9862 30.6939 60.9803 30.6822 60.9666Z" fill="#462303"/>
<path fill-rule="evenodd" clip-rule="evenodd" d="M67.7446 107.719C70.0525 109.724 72.775 111.508 76.3651 111.719C79.8813 111.926 83.0453 110.279 85.826 108.239C86.8225 107.509 87.6797 106.799 88.492 106.126C88.8243 105.851 89.149 105.582 89.4727 105.321C89.9918 104.901 90.5484 104.469 91.0832 104.136C91.5204 103.864 92.3884 103.362 93.4369 103.362C94.4375 103.362 95.2694 103.746 95.8426 104.086C96.4323 104.436 96.9873 104.885 97.4731 105.308C97.8825 105.664 98.3192 106.07 98.7459 106.467C98.8302 106.545 98.9142 106.624 98.9975 106.701C99.5192 107.185 100.052 107.673 100.622 108.154C102.897 110.075 105.559 111.714 109.098 111.714C115.981 111.714 119.437 107.925 122.085 105.022C122.348 104.734 122.604 104.454 122.853 104.187C123.388 103.617 124.151 103.316 124.931 103.368C125.711 103.42 126.427 103.819 126.881 104.455C129.476 108.088 130.725 109.432 132.71 110.424C134.168 111.152 140.6 113.502 147.321 109.021C148.521 108.222 150.141 108.546 150.941 109.745C151.74 110.944 151.416 112.565 150.217 113.364C141.278 119.324 132.654 116.231 130.377 115.093C127.972 113.891 126.314 112.305 124.543 110.06C121.663 113.045 116.939 116.934 109.098 116.934C103.762 116.934 99.9248 114.397 97.2542 112.142C96.5873 111.579 95.981 111.023 95.4475 110.528C95.3525 110.44 95.2607 110.354 95.1718 110.272C94.7454 109.875 94.3847 109.54 94.046 109.245C93.8286 109.056 93.65 108.91 93.5033 108.799C93.3027 108.945 93.0567 109.136 92.7536 109.381C92.511 109.577 92.2367 109.804 91.9364 110.052C91.0925 110.751 90.0429 111.62 88.913 112.449C85.8212 114.716 81.4163 117.245 76.0585 116.93C70.7747 116.619 66.9722 113.963 64.3212 111.66C63.6579 111.084 63.0538 110.518 62.5222 110.016C62.4537 109.951 62.3869 109.888 62.3216 109.826C61.8646 109.394 61.4812 109.032 61.1259 108.719C60.8956 108.516 60.7092 108.363 60.5588 108.248C60.2956 108.414 59.9641 108.644 59.5502 108.946C59.1878 109.211 58.734 109.554 58.2282 109.936C57.3759 110.581 56.376 111.337 55.4165 112.018C52.2928 114.232 47.9016 116.934 43.3261 116.934C37.8912 116.934 34.2657 114.169 31.7853 111.759C31.1699 111.161 30.6087 110.569 30.1194 110.052C29.6134 109.518 29.2041 109.086 28.826 108.726C28.6914 108.597 28.5728 108.49 28.4686 108.4C28.2204 108.702 27.9204 109.098 27.533 109.619C27.4881 109.679 27.4424 109.74 27.3958 109.803C26.3151 111.256 24.7982 113.296 22.7572 115.015C20.5783 116.85 17.7339 118.385 14.0436 118.625C10.384 118.863 6.18846 117.809 1.31557 115.025C0.0640247 114.309 -0.370832 112.715 0.344294 111.464C1.05942 110.212 2.65373 109.777 3.90528 110.492C8.16732 112.928 11.3449 113.57 13.7046 113.416C16.0336 113.264 17.8546 112.32 19.3948 111.022C20.9636 109.701 22.1667 108.085 23.2995 106.564L23.3461 106.501C23.8768 105.788 24.4732 104.988 25.0632 104.378C25.5401 103.884 26.6232 102.84 28.1882 102.84C29.2107 102.84 30.0704 103.204 30.721 103.596C31.3639 103.983 31.9382 104.481 32.4278 104.947C32.9054 105.403 33.3957 105.92 33.8599 106.411L33.9096 106.463C34.4051 106.986 34.896 107.504 35.4226 108.015C37.5096 110.043 39.887 111.714 43.3261 111.714C46.0864 111.714 49.2641 109.981 52.3974 107.759C53.3467 107.086 54.1442 106.481 54.9089 105.901C55.4326 105.504 55.941 105.118 56.472 104.73C57.0581 104.302 57.6613 103.883 58.2237 103.563C58.6719 103.308 59.5452 102.842 60.5473 102.84C61.5538 102.838 62.3874 103.231 62.9544 103.571C63.5405 103.923 64.0929 104.376 64.578 104.803C65.0068 105.181 65.4635 105.613 65.9111 106.036C65.9762 106.098 66.0412 106.159 66.1058 106.22C66.6304 106.716 67.1682 107.219 67.7446 107.719ZM29.0147 107.826C29.0144 107.827 28.9988 107.841 28.9684 107.86C28.9997 107.833 29.0149 107.824 29.0147 107.826ZM27.9496 108.025C27.9475 108.024 27.9464 108.023 27.9464 108.023C27.9464 108.023 27.9475 108.024 27.9496 108.025ZM61.0303 107.986C61.0302 107.987 61.0232 107.99 61.0099 107.994C61.0238 107.988 61.0305 107.986 61.0303 107.986ZM60.1889 108.003C60.1801 107.999 60.1755 107.997 60.1754 107.997C60.1754 107.997 60.1798 107.998 60.1889 108.003ZM94.0045 108.478C94.0042 108.479 93.9925 108.485 93.9702 108.494C93.9937 108.481 94.0048 108.477 94.0045 108.478ZM93.0963 108.53C93.0885 108.527 93.0845 108.525 93.0845 108.525C93.0844 108.525 93.0883 108.526 93.0963 108.53Z" fill="#0090E6"/>
</svg>
