<svg width="136" height="13" viewBox="0 0 136 13" fill="none" xmlns="http://www.w3.org/2000/svg">
<path fill-rule="evenodd" clip-rule="evenodd" d="M60.1384 4.37787C62.3034 6.33271 64.9803 8.18665 68.5593 8.40548C72.098 8.62183 75.2064 6.89529 77.7962 4.92123C78.7279 4.2111 79.5426 3.5099 80.29 2.86667C80.5875 2.61064 80.8744 2.3638 81.1536 2.12923C81.6231 1.73493 82.0915 1.3589 82.5254 1.07833C82.9059 0.832244 83.4992 0.494471 84.1674 0.494255C84.8356 0.494039 85.4198 0.761715 85.8734 1.04141C86.3359 1.32668 86.7902 1.70546 87.2196 2.09397C87.5796 2.41962 87.9635 2.79066 88.3523 3.16643C88.43 3.24152 88.5079 3.3168 88.5859 3.39195C89.0633 3.85224 89.5622 4.32715 90.0989 4.79816C92.2437 6.68065 94.8827 8.40292 98.4335 8.40292C105.139 8.40292 108.553 4.50309 110.968 1.74479C111.207 1.47152 111.437 1.20946 111.658 0.96351C111.951 0.639431 112.367 0.468646 112.794 0.498143C113.22 0.527641 113.612 0.754313 113.86 1.11579C116.229 4.56332 117.483 6.01889 119.519 7.07657C120.996 7.84405 127.255 10.2094 133.782 5.6868C134.438 5.23255 135.323 5.41667 135.76 6.09804C136.197 6.77942 136.02 7.70002 135.365 8.15426C127.626 13.5168 120.169 10.7294 118.243 9.72927C115.936 8.53093 114.435 6.9057 112.576 4.32002C110.086 7.1464 105.918 11.3684 98.4335 11.3684C93.9005 11.3684 90.619 9.13598 88.2581 7.06394C87.6684 6.54632 87.1294 6.03261 86.6455 5.56609C86.5612 5.48479 86.4791 5.40544 86.3989 5.328C86.0101 4.95236 85.6678 4.62159 85.3464 4.33085C84.9564 3.97797 84.6561 3.73895 84.4175 3.59181C84.3287 3.53703 84.2635 3.50456 84.2193 3.48545C84.1762 3.50816 84.1147 3.54319 84.0327 3.59624C83.7588 3.77337 83.4062 4.05 82.9469 4.43578C82.7119 4.63313 82.4527 4.8562 82.1727 5.09719C81.4079 5.75529 80.488 6.54692 79.4835 7.31261C76.7237 9.4163 72.937 11.6438 68.3918 11.3659C63.887 11.0905 60.6198 8.74075 58.2673 6.6166C57.6788 6.08525 57.1406 5.56137 56.6576 5.08739C56.5958 5.02674 56.5352 4.96716 56.4756 4.90863C56.0612 4.50152 55.6987 4.14537 55.3617 3.83659C54.9731 3.48043 54.6746 3.2403 54.4392 3.09329C54.3505 3.03788 54.2865 3.00584 54.2446 2.98751C54.1905 3.01186 54.1005 3.05597 53.9684 3.13399C53.6527 3.32043 53.2467 3.60748 52.7365 3.9947C52.3766 4.26784 51.951 4.6026 51.4845 4.96954C50.7233 5.56833 49.8531 6.25281 48.9816 6.8951C46.1342 8.99348 42.355 11.3684 38.5176 11.3684C33.9302 11.3684 30.8549 8.95703 28.6669 6.74773C28.1226 6.19806 27.6241 5.65152 27.1772 5.16104L27.169 5.15204C26.7165 4.65539 26.3282 4.2291 25.9647 3.86892C25.5963 3.50389 25.3069 3.26138 25.0713 3.11383C24.9726 3.05198 24.8976 3.01591 24.8432 2.99488C24.7918 3.03806 24.7164 3.10754 24.6152 3.21632C24.2823 3.57404 23.8921 4.10764 23.3678 4.83954C23.3304 4.89167 23.2926 4.94454 23.2543 4.9981C22.2639 6.38201 20.94 8.23212 19.1674 9.78367C17.2988 11.4193 14.8941 12.7607 11.7803 12.9713C8.68341 13.1807 5.04683 12.2606 0.71907 9.69033C0.0349948 9.28406 -0.20269 8.37832 0.188185 7.6673C0.579061 6.95628 1.45048 6.70923 2.13456 7.1155C6.12845 9.48747 9.20863 10.1734 11.5951 10.012C13.9647 9.85174 15.81 8.84535 17.3295 7.51534C18.844 6.18973 19.9963 4.58074 21.0141 3.15956C21.0359 3.12913 21.0576 3.09878 21.0793 3.06853C21.5729 2.37945 22.0779 1.67741 22.5643 1.15474C22.9888 0.698465 23.7294 1.79944e-06 24.7274 1.79944e-06C25.429 1.79944e-06 26.0415 0.259209 26.5439 0.573814C27.042 0.885804 27.5068 1.29977 27.9334 1.72251C28.3504 2.13573 28.7822 2.6097 29.2109 3.08027L29.2489 3.12195C29.6992 3.61619 30.1592 4.12001 30.655 4.62071C32.6279 6.61287 35.0211 8.40292 38.5176 8.40292C41.3629 8.40292 44.4788 6.57817 47.3313 4.47596C48.1974 3.8377 48.9574 3.23882 49.6705 2.67681C50.1466 2.30159 50.6019 1.9428 51.054 1.59968C51.582 1.19897 52.0956 0.829243 52.5588 0.555664C52.9595 0.318984 53.5645 0.00118667 54.2073 4.15622e-06C54.8763 -0.00122644 55.4598 0.271012 55.9086 0.551302C56.3679 0.83813 56.8199 1.21935 57.2486 1.61215C57.6257 1.95774 58.0283 2.35336 58.4376 2.75558C58.4971 2.814 58.5567 2.87256 58.6163 2.93112C59.0955 3.40139 59.5975 3.88947 60.1384 4.37787Z" fill="#27D8FF"/>
</svg>
