<svg width="16" height="16" viewBox="0 0 16 16" fill="none" xmlns="http://www.w3.org/2000/svg">
<path id="Vector" d="M0.38889 2.27778C0.129082 2.0169 -0.000549316 1.70208 9.53674e-07 1.33333C-0.000549316 0.964585 0.129082 0.64977 0.38889 0.388891C0.64977 0.129082 0.964584 -0.000548027 1.33333 1.74132e-06C1.70208 -0.000548027 2.0169 0.129082 2.27778 0.388891L8 6.11111L13.7222 0.388891C13.9831 0.129082 14.2979 -0.000548027 14.6667 1.74132e-06C15.0354 -0.000548027 15.3502 0.129082 15.6111 0.388891C15.8709 0.64977 16.0005 0.964585 16 1.33333C16.0005 1.70208 15.8709 2.0169 15.6111 2.27778L9.88889 8L15.6111 13.7222C15.8709 13.9831 16.0005 14.2979 16 14.6667C16.0005 15.0354 15.8709 15.3502 15.6111 15.6111C15.3502 15.8709 15.0354 16.0005 14.6667 16C14.2979 16.0005 13.9831 15.8709 13.7222 15.6111L8 9.88889L2.27778 15.6111C2.0169 15.8709 1.70208 16.0005 1.33333 16C0.964584 16.0005 0.64977 15.8709 0.38889 15.6111C0.129082 15.3502 -0.000549316 15.0354 9.53674e-07 14.6667C-0.000549316 14.2979 0.129082 13.9831 0.38889 13.7222L6.11111 8L0.38889 2.27778Z" fill="#FFCD4E"/>
</svg>
