<svg width="80" height="63" viewBox="0 0 80 63" fill="none" xmlns="http://www.w3.org/2000/svg">
<g id="&#236;&#136;&#152;&#235;&#139;&#172;">
<path id="Vector 18 (Stroke)" fill-rule="evenodd" clip-rule="evenodd" d="M43.3451 1.68295C27.5155 1.4631 21.0654 9.08345 19.8114 12.5946C19.6713 12.9868 19.2648 13.2169 18.8565 13.1352C17.551 12.874 15.9273 12.8442 14.6687 13.1417C14.0383 13.2907 13.5653 13.5066 13.2658 13.7571C12.9908 13.987 12.8673 14.2359 12.8673 14.5498C12.8673 15.5367 13.1712 15.9255 13.464 16.1289C13.8317 16.3844 14.3837 16.4928 15.1285 16.5448C15.3064 16.5572 15.4855 16.5661 15.67 16.5751L15.6976 16.5765C15.8705 16.5849 16.0495 16.5936 16.2232 16.6053C16.581 16.6296 16.9744 16.6697 17.3321 16.7715C17.6906 16.8735 18.1023 17.062 18.397 17.4478C18.7032 17.8486 18.7868 18.334 18.7373 18.8291C18.6109 20.0924 18.8669 22.7845 19.5259 25.7673C20.1822 28.7383 21.2059 31.8466 22.5299 33.9651C23.758 35.93 26.1584 37.3234 29.9012 38.3192C33.6289 39.3109 38.5247 39.8667 44.534 40.286C50.4388 40.698 54.7127 39.8713 57.8981 38.5636C61.0822 37.2565 63.2295 35.4481 64.8612 33.8165C65.4837 33.194 66.0378 32.2048 66.5024 30.9273C66.9627 29.6617 67.313 28.1753 67.5638 26.6184C68.0662 23.5005 68.1556 20.1887 67.9748 17.9747C67.9542 17.7221 68.0488 17.4737 68.2323 17.2989C68.4158 17.1241 68.6684 17.0415 68.9197 17.0743C69.918 17.2045 71.3861 17.196 72.5627 16.797C73.1438 16.5999 73.6028 16.3249 73.9117 15.9746C74.2066 15.6403 74.4056 15.1931 74.4056 14.5498C74.4056 13.906 74.2083 13.536 73.96 13.2977C73.6895 13.0381 73.2687 12.8502 72.6954 12.7555C71.5344 12.5637 70.0674 12.8072 69.0556 13.1152C68.6579 13.2362 68.2316 13.0479 68.0532 12.6724C66.4454 9.28758 59.2042 1.90322 43.3451 1.68295ZM18.4974 11.3736C20.4982 6.95494 27.7737 -0.211795 43.3684 0.00479784C58.9294 0.220924 66.8376 7.145 69.2407 11.3276C70.3281 11.0686 71.7255 10.8942 72.9689 11.0996C73.736 11.2263 74.5214 11.5103 75.1222 12.0869C75.7451 12.6848 76.0839 13.5152 76.0839 14.5498C76.0839 15.5848 75.7468 16.4313 75.1704 17.0847C74.6082 17.7222 73.8609 18.129 73.1017 18.3864C71.9901 18.7634 70.745 18.8571 69.7081 18.82C69.8072 21.0953 69.6749 24.0665 69.2208 26.8853C68.959 28.51 68.5869 30.1061 68.0796 31.501C67.5767 32.8839 66.9182 34.133 66.0479 35.0032C64.3229 36.7282 61.9947 38.6961 58.5355 40.1162C55.0776 41.5357 50.5404 42.3874 44.4172 41.9602C38.3986 41.5403 33.3643 40.9773 29.4697 39.9411C25.5901 38.9089 22.6759 37.3652 21.1067 34.8546C19.6336 32.4975 18.5593 29.1723 17.8871 26.1294C17.2174 23.0982 16.9139 20.1959 17.0673 18.6621C17.0791 18.5439 17.0681 18.4868 17.0613 18.4657C17.0473 18.4545 16.9984 18.4215 16.8728 18.3857C16.6929 18.3345 16.4459 18.3026 16.1099 18.2798C15.9525 18.2692 15.7881 18.2612 15.6105 18.2525L15.5884 18.2514C15.4053 18.2425 15.2096 18.2329 15.0117 18.2191C14.253 18.1661 13.2839 18.0473 12.5065 17.5073C11.6542 16.9152 11.1889 15.9404 11.189 14.5498C11.189 13.6689 11.5899 12.9707 12.1891 12.4696C12.7637 11.9891 13.5144 11.69 14.2826 11.5084C15.5925 11.1988 17.1444 11.1863 18.4974 11.3736ZM17.0568 18.4555C17.057 18.4553 17.0583 18.4573 17.06 18.462C17.0575 18.4581 17.0566 18.4557 17.0568 18.4555Z" fill="white"/>
<path id="Vector 20 (Stroke)" fill-rule="evenodd" clip-rule="evenodd" d="M30.8525 24.095C32.7581 23.3804 35.2627 23.4057 36.1457 23.5038C36.4528 23.538 36.6741 23.8146 36.6399 24.1216C36.6058 24.4287 36.3292 24.65 36.0221 24.6159C35.2268 24.5275 32.9202 24.5146 31.2454 25.1427C29.6287 25.7489 28.1082 26.8926 27.3084 27.4942C27.2665 27.5257 27.2266 27.5557 27.1888 27.584C26.9416 27.7694 26.591 27.7193 26.4056 27.4721C26.2202 27.2249 26.2704 26.8742 26.5176 26.6889C26.5582 26.6584 26.6019 26.6255 26.6485 26.5904C27.441 25.9934 29.0779 24.7605 30.8525 24.095Z" fill="white"/>
<path id="Vector 21 (Stroke)" fill-rule="evenodd" clip-rule="evenodd" d="M34.6884 26.3652C35.4197 26.1599 36.1454 26.0195 36.6432 26.0195C36.9522 26.0195 37.2027 26.27 37.2027 26.579C37.2027 26.8879 36.9522 27.1384 36.6432 27.1384C36.3019 27.1384 35.6951 27.2447 34.9909 27.4425C34.298 27.637 33.5636 27.9051 32.9774 28.1982C32.4677 28.453 31.8032 28.9153 31.2139 29.366C30.6236 29.8174 30.1584 30.2186 30.0458 30.3312C29.8274 30.5497 29.4732 30.5497 29.2547 30.3312C29.0362 30.1127 29.0362 29.7585 29.2547 29.54C29.4219 29.3728 29.9357 28.9349 30.5342 28.4772C31.1337 28.0188 31.8677 27.5021 32.477 27.1975C33.1417 26.8651 33.9457 26.5738 34.6884 26.3652Z" fill="white"/>
<path id="Vector 22 (Stroke)" fill-rule="evenodd" clip-rule="evenodd" d="M56.6391 20.4375C54.7339 19.9612 53.3537 20.1445 51.9182 20.4317C51.6152 20.4922 51.4187 20.787 51.4793 21.0899C51.5399 21.3929 51.8347 21.5894 52.1376 21.5288C53.4993 21.2565 54.6925 21.1042 56.3677 21.523C57.1888 21.7282 57.9741 22.1182 58.5957 22.4992C59.2231 22.8837 59.6455 23.2352 59.7442 23.3338C59.9627 23.5523 60.3169 23.5523 60.5354 23.3338C60.7538 23.1154 60.7538 22.7612 60.5354 22.5427C60.3543 22.3616 59.8537 21.9579 59.1804 21.5452C58.5013 21.129 57.6082 20.6798 56.6391 20.4375Z" fill="white"/>
<path id="Vector 23 (Stroke)" fill-rule="evenodd" clip-rule="evenodd" d="M56.4202 23.5364C54.5146 22.8218 52.01 22.8471 51.127 22.9452C50.8199 22.9794 50.5987 23.256 50.6328 23.563C50.6669 23.8701 50.9435 24.0914 51.2506 24.0573C52.0459 23.9689 54.3525 23.956 56.0273 24.5841C57.644 25.1903 59.1645 26.334 59.9643 26.9356C60.0062 26.9671 60.0461 26.9971 60.0839 27.0254C60.3311 27.2108 60.6818 27.1607 60.8671 26.9135C61.0525 26.6663 61.0023 26.3156 60.7552 26.1303C60.7145 26.0998 60.6708 26.0669 60.6242 26.0318C59.8317 25.4348 58.1948 24.2019 56.4202 23.5364Z" fill="white"/>
<path id="Vector 24 (Stroke)" fill-rule="evenodd" clip-rule="evenodd" d="M52.5841 25.7988C51.8528 25.5935 51.1271 25.4531 50.6292 25.4531C50.3202 25.4531 50.0698 25.7036 50.0698 26.0126C50.0698 26.3215 50.3202 26.572 50.6292 26.572C50.9705 26.572 51.5774 26.6783 52.2816 26.8761C52.9745 27.0706 53.7089 27.3387 54.2951 27.6318C54.8047 27.8866 55.4693 28.3489 56.0586 28.7996C56.6489 29.251 57.1141 29.6522 57.2266 29.7648C57.4451 29.9833 57.7993 29.9833 58.0178 29.7648C58.2363 29.5463 58.2363 29.1921 58.0178 28.9736C57.8506 28.8064 57.3368 28.3685 56.7383 27.9108C56.1388 27.4524 55.4047 26.9357 54.7955 26.6311C54.1308 26.2987 53.3267 26.0074 52.5841 25.7988Z" fill="white"/>
<path id="Ellipse 24" d="M28.8112 16.7868C28.8112 17.4048 28.3103 17.9057 27.6924 17.9057C27.0744 17.9057 26.5735 17.4048 26.5735 16.7868C26.5735 16.1689 27.0744 15.668 27.6924 15.668C28.3103 15.668 28.8112 16.1689 28.8112 16.7868Z" fill="white"/>
<path id="Ellipse 24 (Stroke)" fill-rule="evenodd" clip-rule="evenodd" d="M29.3708 16.7838C29.3708 17.7107 28.6194 18.4621 27.6925 18.4621C26.7656 18.4621 26.0142 17.7107 26.0142 16.7838C26.0142 15.8569 26.7656 15.1055 27.6925 15.1055C28.6194 15.1055 29.3708 15.8569 29.3708 16.7838ZM27.6925 17.9027C28.3104 17.9027 28.8114 17.4017 28.8114 16.7838C28.8114 16.1658 28.3104 15.6649 27.6925 15.6649C27.0745 15.6649 26.5736 16.1658 26.5736 16.7838C26.5736 17.4017 27.0745 17.9027 27.6925 17.9027Z" fill="white"/>
<path id="Ellipse 25" d="M60.6992 16.7868C60.6992 17.4048 60.1982 17.9057 59.5803 17.9057C58.9624 17.9057 58.4614 17.4048 58.4614 16.7868C58.4614 16.1689 58.9624 15.668 59.5803 15.668C60.1982 15.668 60.6992 16.1689 60.6992 16.7868Z" fill="white"/>
<path id="Ellipse 25 (Stroke)" fill-rule="evenodd" clip-rule="evenodd" d="M61.2587 16.7838C61.2587 17.7107 60.5073 18.4621 59.5804 18.4621C58.6535 18.4621 57.9021 17.7107 57.9021 16.7838C57.9021 15.8569 58.6535 15.1055 59.5804 15.1055C60.5073 15.1055 61.2587 15.8569 61.2587 16.7838ZM59.5804 17.9027C60.1984 17.9027 60.6993 17.4017 60.6993 16.7838C60.6993 16.1658 60.1984 15.6649 59.5804 15.6649C58.9625 15.6649 58.4615 16.1658 58.4615 16.7838C58.4615 17.4017 58.9625 17.9027 59.5804 17.9027Z" fill="white"/>
<path id="Vector 25 (Stroke)" fill-rule="evenodd" clip-rule="evenodd" d="M68.5413 18.3925C68.8915 18.089 69.4215 18.1269 69.725 18.4771C70.7331 19.6403 71.5448 21.2909 72.2014 23.1178C72.8626 24.9575 73.3881 27.0379 73.7954 29.1095C74.6088 33.2473 74.965 37.4276 74.965 39.7259C74.965 44.9191 74.1116 51.3844 71.5549 58.2023C71.3922 58.6363 70.9085 58.8561 70.4745 58.6934C70.0406 58.5307 69.8207 58.047 69.9835 57.613C72.4617 51.0044 73.2867 44.7415 73.2867 39.7259C73.2867 37.5487 72.9436 33.4773 72.1486 29.4333C71.7516 27.414 71.2457 25.421 70.622 23.6855C69.9936 21.9373 69.2668 20.511 68.4567 19.5763C68.1532 19.226 68.1911 18.6961 68.5413 18.3925Z" fill="white"/>
<path id="Vector 26 (Stroke)" fill-rule="evenodd" clip-rule="evenodd" d="M35.3755 57.587C36.6491 58.6933 38.2237 59.7426 40.329 59.8664C42.4106 59.9888 44.2391 59.0117 45.7625 57.8945C46.3105 57.4926 46.7898 57.0958 47.2294 56.7317C47.4044 56.5869 47.5732 56.4472 47.7374 56.3144C48.0136 56.0912 48.2891 55.8784 48.5443 55.7197C48.7682 55.5804 49.1172 55.3892 49.5102 55.3891C49.9033 55.389 50.2469 55.5405 50.5137 55.6988C50.7858 55.8602 51.053 56.0746 51.3057 56.2944C51.5174 56.4787 51.7432 56.6887 51.972 56.9014C52.0177 56.9439 52.0635 56.9865 52.1093 57.029C52.3902 57.2895 52.6837 57.5583 52.9994 57.8249C54.261 58.8902 55.8134 59.865 57.9021 59.865C61.8465 59.865 63.8548 57.6579 65.2753 56.0968C65.416 55.9422 65.551 55.7939 65.6815 55.6547C65.8534 55.4713 66.0985 55.3746 66.3494 55.3913C66.6002 55.408 66.8304 55.5363 66.9765 55.7409C68.3701 57.692 69.1074 58.5157 70.3051 59.1143C71.1743 59.5487 74.856 60.8873 78.6953 58.3278C79.0809 58.0707 79.6019 58.1749 79.859 58.5605C80.1161 58.9461 80.0118 59.4672 79.6262 59.7242C75.0739 62.7591 70.6874 61.1816 69.5549 60.6156C68.1978 59.9374 67.3147 59.0176 66.221 57.5543C64.7564 59.1538 62.305 61.5433 57.9021 61.5433C55.2356 61.5433 53.3053 60.2798 51.9166 59.1072C51.5696 58.8142 51.2526 58.5235 50.9679 58.2595C50.9183 58.2135 50.87 58.1686 50.8229 58.1247C50.5942 57.9121 50.3928 57.7249 50.2038 57.5604C49.9743 57.3607 49.7977 57.2254 49.6574 57.1421C49.6051 57.1111 49.5668 57.0928 49.5408 57.0819C49.5154 57.0948 49.4792 57.1146 49.431 57.1446C49.2699 57.2449 49.0625 57.4014 48.7923 57.6198C48.6541 57.7315 48.5016 57.8577 48.3369 57.9941C47.887 58.3665 47.3459 58.8146 46.755 59.2479C45.1316 60.4385 42.9041 61.6991 40.2305 61.5418C37.5806 61.3859 35.6587 60.0561 34.2749 58.854C33.9287 58.5533 33.6121 58.2568 33.328 57.9885C33.2917 57.9542 33.256 57.9205 33.2209 57.8874C32.9772 57.657 32.7639 57.4554 32.5657 57.2807C32.3371 57.0791 32.1615 56.9432 32.0231 56.86C31.9709 56.8286 31.9333 56.8105 31.9086 56.8001C31.8768 56.8139 31.8238 56.8389 31.7461 56.883C31.5604 56.9885 31.3216 57.151 31.0215 57.3702C30.8098 57.5247 30.5594 57.7142 30.285 57.9219C29.8372 58.2607 29.3254 58.6481 28.8127 59.0116C27.1378 60.1992 24.9147 61.5433 22.6574 61.5433C19.959 61.5433 18.1499 60.1786 16.8629 58.9282C16.5427 58.6171 16.2495 58.3078 15.9866 58.0302L15.9818 58.0251C15.7156 57.7441 15.4871 57.5028 15.2733 57.299C15.0566 57.0924 14.8864 56.9551 14.7478 56.8716C14.6897 56.8366 14.6456 56.8162 14.6136 56.8043C14.5834 56.8287 14.5391 56.8681 14.4795 56.9296C14.2837 57.1321 14.0541 57.4341 13.7457 57.8483C13.7238 57.8778 13.7015 57.9077 13.679 57.938C13.0964 58.7212 12.3176 59.7683 11.2749 60.6464C10.1757 61.572 8.76121 62.3312 6.92961 62.4504C5.10789 62.5689 2.96873 62.0482 0.422982 60.5936C0.0205852 60.3636 -0.11923 59.851 0.110697 59.4486C0.340624 59.0462 0.853224 58.9064 1.25562 59.1364C3.60497 60.4788 5.41684 60.867 6.82063 60.7756C8.21455 60.6849 9.30002 60.1153 10.1938 59.3626C11.0847 58.6124 11.7625 57.7018 12.3612 56.8975C12.374 56.8803 12.3868 56.8631 12.3996 56.846C12.6899 56.456 12.987 56.0587 13.2731 55.7629C13.5228 55.5047 13.9584 55.1094 14.5456 55.1094C14.9582 55.1094 15.3186 55.2561 15.614 55.4341C15.9071 55.6107 16.1804 55.845 16.4314 56.0842C16.6767 56.3181 16.9307 56.5863 17.1829 56.8526L17.2052 56.8762C17.4701 57.1559 17.7407 57.4411 18.0324 57.7244C19.1929 58.8519 20.6007 59.865 22.6574 59.865C24.3311 59.865 26.164 58.8322 27.842 57.6425C28.3514 57.2813 28.7984 56.9424 29.2179 56.6243C29.498 56.4119 29.7658 56.2089 30.0318 56.0147C30.3424 55.7879 30.6445 55.5787 30.9169 55.4238C31.1527 55.2899 31.5085 55.11 31.8867 55.1094C32.2802 55.1087 32.6234 55.2628 32.8874 55.4214C33.1576 55.5837 33.4235 55.7995 33.6756 56.0218C33.8975 56.2173 34.1343 56.4412 34.3751 56.6689C34.41 56.7019 34.4451 56.7351 34.4802 56.7682C34.7621 57.0344 35.0574 57.3106 35.3755 57.587Z" fill="white"/>
<path id="Vector 27 (Stroke)" fill-rule="evenodd" clip-rule="evenodd" d="M18.9526 29.7357C19.6566 30.3023 20.2768 31.1469 20.838 31.9886C21.3703 32.787 24.133 36.3795 26.3275 38.574C27.1605 39.4069 29.3718 41.0171 31.9117 42.7135C34.4258 44.3925 37.1697 46.0955 39.0056 47.1053C39.4117 47.3286 39.5598 47.8389 39.3365 48.245C39.1131 48.6511 38.6029 48.7992 38.1968 48.5758C36.3032 47.5343 33.5156 45.8028 30.9796 44.1091C28.4694 42.4327 26.112 40.732 25.1408 39.7608C22.8598 37.4797 20.0282 33.7996 19.4416 32.9196C18.8838 32.0831 18.3851 31.4334 17.9003 31.0432C17.4467 30.6781 17.1123 30.6174 16.7716 30.7324C16.4556 30.839 16.0506 31.0529 15.794 31.3529C15.5787 31.6047 15.4423 31.9335 15.6212 32.47C15.6569 32.5771 15.6885 32.676 15.7108 32.7583C15.7217 32.7987 15.7348 32.8511 15.7444 32.907L15.7448 32.9097C15.7507 32.9441 15.7738 33.0778 15.7457 33.2352C15.731 33.3181 15.6844 33.5135 15.5117 33.6879C15.3032 33.8983 15.0361 33.9558 14.8242 33.9345C14.6496 33.9169 14.525 33.8497 14.4741 33.82C14.4133 33.7845 14.3679 33.7482 14.3417 33.7261C14.2575 33.6548 14.1839 33.5663 14.1516 33.5274L14.1491 33.5243C14.1113 33.4788 14.071 33.4288 14.0277 33.3751C13.8623 33.1698 13.6531 32.9102 13.3704 32.6393C13.016 32.2997 12.6126 32.0122 12.1823 31.8818C11.7834 31.761 11.3172 31.7595 10.7514 32.0681C10.0375 32.4575 9.74789 32.8624 9.65374 33.1962C9.56031 33.5274 9.6091 33.9674 9.95028 34.536C10.0058 34.6284 10.0555 34.7146 10.0946 34.79C10.0952 34.7913 10.0959 34.7926 10.0967 34.794C10.1219 34.8425 10.1924 34.9782 10.2214 35.1345C10.2215 35.1354 10.2217 35.1365 10.222 35.1377C10.2316 35.1883 10.2946 35.5194 10.0566 35.8254C9.74375 36.2277 9.29444 36.155 9.19545 36.1332C9.06446 36.1043 8.96712 36.0506 8.93334 36.0317C8.88651 36.0054 8.8458 35.9782 8.81647 35.9578C8.73194 35.8988 8.61901 35.8081 8.51715 35.7263C8.49622 35.7095 8.47575 35.6931 8.4561 35.6774C8.32366 35.5715 8.17373 35.4538 8.00877 35.3359C7.66832 35.0928 7.31251 34.8853 6.98712 34.7892C6.67572 34.6973 6.4845 34.7303 6.33968 34.8269C5.45208 35.4186 5.32664 35.7891 5.29829 36.0483C5.2789 36.2257 5.29791 36.4413 5.3575 36.7627C5.37533 36.8588 5.40159 36.9858 5.43101 37.128C5.48121 37.3707 5.5406 37.6579 5.58296 37.9121C5.63846 38.2451 5.87312 39.0134 6.25768 40.087C6.63255 41.1335 7.12578 42.405 7.66368 43.7057C8.75103 46.3349 9.98154 48.9864 10.7683 50.1667C11.4358 51.1681 12.3846 52.3224 13.2774 53.301C14.1916 54.3032 14.9676 55.0333 15.2905 55.2486C15.6762 55.5056 15.7804 56.0266 15.5233 56.4123C15.2662 56.7979 14.7452 56.9021 14.3596 56.645C13.8434 56.3009 12.9412 55.4228 12.0375 54.4321C11.1121 53.4178 10.103 52.1945 9.3718 51.0976C8.4804 49.7603 7.19336 46.96 6.11276 44.3471C5.5667 43.0267 5.06335 41.7296 4.67768 40.653C4.3017 39.6034 4.01184 38.6941 3.92748 38.188C3.88588 37.9383 3.8456 37.7471 3.80397 37.5494C3.77289 37.4017 3.74104 37.2505 3.70733 37.0687C3.63979 36.7046 3.58318 36.2933 3.62992 35.8659C3.73386 34.9154 4.30777 34.1644 5.40873 33.4304C6.10309 32.9675 6.85592 33.0006 7.46233 33.1796C7.62541 33.2277 7.78419 33.288 7.9369 33.3559C7.94766 33.1509 7.98066 32.9455 8.03845 32.7406C8.29396 31.8347 8.98334 31.1207 9.94776 30.5947C10.9204 30.0641 11.8528 30.0283 12.669 30.2756C13.2068 30.4386 13.6711 30.7168 14.0549 31.0146C14.1698 30.7347 14.3296 30.483 14.5185 30.2621C15.0422 29.6497 15.7561 29.3037 16.2352 29.1421C17.2931 28.7852 18.2174 29.144 18.9526 29.7357ZM8.61582 35.5856C8.61556 35.5854 8.61328 35.5809 8.60979 35.5726C8.61434 35.5817 8.61609 35.5859 8.61582 35.5856Z" fill="white"/>
<path id="Vector 19" d="M39.1549 15.7982C40.5401 15.3365 42.1725 13.8514 44.1193 12.5859C45.8714 13.5594 47.3316 15.2142 49.3757 15.7982C50.2181 16.0389 48.4996 19.0059 47.0395 20.466C45.5794 21.9262 44.1194 23.6783 44.9954 26.0145C45.3776 27.0336 47.0395 27.7712 47.0395 28.0587C47.0395 28.3461 45.2279 29.8108 44.1194 29.8108C42.9154 29.8108 41.1991 28.3461 41.1991 28.0587C41.1991 27.7712 42.9513 27.1872 43.5353 26.0191C44.3715 24.3466 42.7717 22.0386 41.1991 20.466C38.5709 17.8378 38.2788 16.0902 39.1549 15.7982Z" fill="white"/>
<path id="Vector 28 (Stroke)" fill-rule="evenodd" clip-rule="evenodd" d="M30.2529 20.7707C32.2419 20.2734 33.6828 20.4649 35.1815 20.7646C35.4978 20.8279 35.7029 21.1355 35.6396 21.4518C35.5764 21.7681 35.2687 21.9733 34.9524 21.91C33.5308 21.6257 32.2851 21.4667 30.5362 21.9039C29.679 22.1182 28.8592 22.5253 28.2102 22.9231C27.5552 23.3245 27.1142 23.6915 27.0112 23.7945C26.7831 24.0225 26.4133 24.0225 26.1852 23.7945C25.9571 23.5664 25.9571 23.1966 26.1852 22.9685C26.3742 22.7795 26.8969 22.358 27.5998 21.9271C28.3088 21.4926 29.2411 21.0236 30.2529 20.7707Z" fill="white"/>
</g>
</svg>
