<svg width="79" height="74" viewBox="0 0 79 74" fill="none" xmlns="http://www.w3.org/2000/svg">
<g id="Vector">
<mask id="path-1-outside-1_362_766" maskUnits="userSpaceOnUse" x="0" y="0" width="79" height="74" fill="black">
<rect fill="white" width="79" height="74"/>
<path d="M77.9976 31.1374C78.0068 31.0458 77.9885 30.945 77.961 30.8533C77.961 30.8442 77.961 30.8442 77.9518 30.835C77.3379 29.0755 75.771 27.5634 74.2591 26.0971C73.1687 25.0432 72.1424 24.0443 71.6293 23.1003C71.0978 22.1289 71.0336 21.0384 70.9603 19.8928C70.8779 18.4907 70.7863 17.0427 69.7966 15.8055C68.7887 14.5409 67.0752 13.7986 65.4167 13.0746C64.2346 12.5614 63.1167 12.0757 62.4295 11.4708C61.7239 10.8568 61.3208 9.97705 60.8901 9.05146C60.3403 7.8601 59.763 6.63208 58.5077 5.88977C57.2523 5.14746 55.6213 5.09247 54.0452 5.04665C52.909 5.01 51.8278 4.97334 51.0306 4.68924C50.2334 4.39599 49.5278 3.76365 48.7765 3.09466C47.7868 2.21488 46.7697 1.29845 45.3953 1.06018C44.0208 0.821906 42.6555 1.33511 41.3269 1.82998C40.3464 2.19655 39.4209 2.53563 38.5962 2.5448C37.799 2.5448 36.8369 2.22405 35.8473 1.8758C34.5187 1.40842 33.1534 0.931878 31.788 1.18848C30.4227 1.44508 29.4423 2.37067 28.4893 3.26878C27.7746 3.94694 27.0965 4.57927 26.3177 4.8817C25.5388 5.17495 24.4667 5.22077 23.3397 5.25743C21.8003 5.31242 20.2059 5.3674 18.9963 6.10055C17.7777 6.84286 17.2554 8.05255 16.7606 9.22558C16.3757 10.1237 16.0183 10.9668 15.3678 11.5441C14.7172 12.1215 13.6268 12.5797 12.4722 13.0654C10.887 13.7344 9.2468 14.4217 8.31216 15.6039C7.37753 16.7861 7.37752 18.1608 7.36836 19.4804C7.3592 20.5252 7.3592 21.5149 6.90104 22.3764C6.45205 23.2286 5.48076 24.1451 4.44533 25.1165C3.02505 26.4453 1.54979 27.8291 1.03665 29.4329C1.03665 29.442 1.02749 29.4604 1.02749 29.4695C1.00916 29.552 1 29.6437 1 29.7261C1.00916 29.7994 1.01833 29.8728 1.04582 29.9461C1.05498 29.9644 1.06414 29.9827 1.07331 30.0102C7.38669 43.7933 13.8009 54.1673 20.2517 61.0956C18.4099 63.6341 17.7685 67.0249 18.1167 69.2335L18.135 69.3343C18.5565 70.7547 19.3995 71.7811 20.6457 72.386C21.4979 72.7984 22.515 73 23.7245 73C26.0611 73 29.0941 72.2302 32.8785 70.6906C33.0434 70.6264 33.1625 70.4981 33.245 70.3607C35.3158 71.0847 37.3775 71.4604 39.4484 71.4787C39.4942 71.4787 39.54 71.4787 39.595 71.4787C41.8217 71.4787 44.0483 71.0572 46.2749 70.2415C46.3482 70.4432 46.4948 70.6081 46.7056 70.6906C50.49 72.2302 53.523 73 55.8595 73C57.0691 73 58.0953 72.7984 58.9384 72.386C60.1845 71.7903 61.0275 70.7639 61.449 69.3343L61.4857 69.2335C61.8522 66.9791 61.1741 63.4691 59.2316 60.9214C65.4808 54.2407 71.7209 44.3982 77.9151 31.4307C77.961 31.3391 77.9885 31.2382 77.9976 31.1374ZM21.3238 70.9655C20.4991 70.5715 19.9493 69.9025 19.6469 68.9402C19.3812 67.1623 19.8943 64.3764 21.3329 62.2503C24.6683 65.6227 28.0128 68.0696 31.3665 69.6C26.6201 71.4237 23.248 71.882 21.3238 70.9655ZM59.9463 68.931C59.6439 69.9025 59.1033 70.5623 58.2694 70.9564C56.3269 71.8911 52.8815 71.4054 48.0251 69.5084C51.3879 67.9505 54.76 65.4669 58.1228 62.067C59.6622 64.2114 60.2212 67.1073 59.9463 68.931ZM39.595 69.9025C39.5492 69.9025 39.5034 69.9025 39.4667 69.9025C27.2706 69.8017 14.8729 56.2568 2.63103 29.6437C3.11668 28.5164 4.33537 27.3709 5.51741 26.2529C6.19548 25.6114 6.84606 24.9974 7.38669 24.3742C12.0324 36.077 18.0984 47.4316 23.752 54.9463C23.9078 55.1479 24.146 55.2579 24.3843 55.2579C24.5492 55.2579 24.7141 55.2029 24.8516 55.1021C25.1998 54.8455 25.2639 54.3506 25.0073 54.0024C19.2621 46.3685 13.0861 34.7115 8.44045 22.7613C8.91693 21.6615 8.92609 20.5068 8.92609 19.4804C8.93525 18.3257 8.93525 17.3268 9.53086 16.5662C10.2089 15.7047 11.6567 15.0907 13.0587 14.5042C13.8925 14.156 14.6897 13.8077 15.3861 13.4045C17.2462 20.6351 19.2163 27.3068 21.2596 33.2361C21.3696 33.566 21.672 33.7676 22.0018 33.7676C22.0843 33.7676 22.1759 33.7493 22.2584 33.7218C22.6708 33.5843 22.8907 33.1353 22.7441 32.7229C20.6549 26.6469 18.639 19.8012 16.7422 12.3598C17.4295 11.5991 17.8326 10.6735 18.19 9.83042C18.6298 8.80402 19.0147 7.91508 19.8027 7.42937C20.664 6.90701 22.0477 6.86119 23.3855 6.81536C24.2285 6.78787 25.099 6.75121 25.887 6.59542C27.5455 25.4281 30.8992 43.051 34.4912 51.693C34.6195 51.9954 34.9127 52.1787 35.2151 52.1787C35.3159 52.1787 35.4166 52.1604 35.5174 52.1145C35.9206 51.9496 36.1039 51.4914 35.9389 51.0881C32.3836 42.5287 29.0483 24.9057 27.4172 6.07306C28.2236 5.64233 28.9017 5.01916 29.5523 4.40515C30.3769 3.62618 31.1558 2.89304 32.0721 2.71892C33.0159 2.53563 34.1338 2.9297 35.3158 3.34209C36.1863 3.64451 37.0752 3.94694 37.9731 4.04774V50.0068C37.9731 50.4375 38.3213 50.7949 38.7612 50.7949C39.201 50.7949 39.5492 50.4466 39.5492 50.0068V4.00192C40.3372 3.85529 41.1161 3.5712 41.8766 3.28711C43.0587 2.84722 44.1674 2.43483 45.1295 2.59978C46.0642 2.75558 46.8705 3.48872 47.7319 4.24936C48.5199 4.95501 49.3354 5.66983 50.3525 6.08222C50.0868 9.17976 49.7661 12.2773 49.3995 15.3198C49.3446 15.7506 49.6561 16.1446 50.0868 16.1905C50.1143 16.1905 50.1509 16.1996 50.1784 16.1996C50.5724 16.1996 50.9115 15.9064 50.9573 15.5031C51.3146 12.5247 51.6262 9.49134 51.8919 6.45796C52.57 6.5496 53.2847 6.57709 53.9903 6.59542C55.3647 6.64124 56.7942 6.68706 57.7013 7.21859C58.5352 7.71347 58.9658 8.6299 59.4606 9.69296C59.8547 10.5452 60.3037 11.4983 61.0367 12.2865C56.2536 31.0366 50.8107 45.6445 45.6885 53.4617C45.4502 53.8283 45.551 54.314 45.9176 54.5523C46.055 54.6347 46.2016 54.6806 46.3482 54.6806C46.6048 54.6806 46.8522 54.5523 47.008 54.3231C52.1576 46.4602 57.6097 31.9256 62.3928 13.3404C63.1076 13.7619 63.9322 14.1285 64.7936 14.5042C66.278 15.1457 67.8082 15.8147 68.5688 16.7678C69.2468 17.6109 69.311 18.7106 69.3935 19.9661C69.4393 20.6443 69.4851 21.3683 69.6409 22.1106C69.5676 22.1839 69.5126 22.2756 69.4668 22.3764C64.7844 34.5007 58.5168 46.3319 52.6983 54.0299C52.4325 54.3781 52.5058 54.873 52.854 55.1296C52.9915 55.2396 53.1656 55.2854 53.3305 55.2854C53.5688 55.2854 53.807 55.1754 53.9536 54.9738C59.6531 47.4224 65.774 35.9854 70.4472 24.1726C71.0978 25.199 72.1057 26.1796 73.1687 27.2151C74.4515 28.4615 75.7801 29.7536 76.3574 31.0641C63.9964 56.8342 51.6262 69.9025 39.595 69.9025ZM51.6445 56.6325C51.9744 56.9166 52.0019 57.4115 51.7178 57.7414L51.4246 58.0713C51.2688 58.2455 51.0581 58.3279 50.8382 58.3279C50.6549 58.3279 50.4625 58.2638 50.3159 58.1263C49.9951 57.8331 49.9677 57.3382 50.2609 57.0174L50.5358 56.7059C50.8198 56.3851 51.3146 56.3485 51.6445 56.6325ZM27.7288 57.3199C28.0312 57.6315 28.0128 58.1355 27.7013 58.4288C27.5455 58.5754 27.3531 58.6395 27.1607 58.6395C26.9499 58.6395 26.7483 58.5571 26.5926 58.3921C26.3543 58.1447 26.3177 58.0988 26.1986 57.9522L25.9878 57.7139C25.7037 57.384 25.7404 56.8892 26.0703 56.6051C26.4001 56.321 26.895 56.3576 27.179 56.6875L27.3989 56.9441C27.4997 57.0633 27.5272 57.1091 27.7288 57.3199ZM32.3928 53.9841C32.6402 54.3415 32.5394 54.8363 32.1821 55.0746C32.0446 55.1663 31.898 55.2121 31.7422 55.2121C31.4948 55.2121 31.2474 55.0929 31.0917 54.8638C28.2511 50.6666 25.3464 44.5082 22.4417 36.5535C22.2951 36.1503 22.5058 35.6921 22.909 35.5455C23.3213 35.3988 23.7703 35.6096 23.9169 36.0129C26.7758 43.8483 29.6256 49.8876 32.3928 53.9841ZM50.5174 19.0039C48.6848 32.8512 45.9725 45.0763 43.2603 51.7113C43.132 52.0137 42.8388 52.197 42.5364 52.197C42.4356 52.197 42.3348 52.1787 42.2432 52.142C41.84 51.9771 41.6476 51.5189 41.8125 51.1156C44.479 44.5998 47.1546 32.5212 48.9689 18.8023C49.0239 18.3716 49.427 18.0691 49.8485 18.1241C50.27 18.1791 50.5724 18.5732 50.5174 19.0039Z"/>
</mask>
<path d="M77.9976 31.1374C78.0068 31.0458 77.9885 30.945 77.961 30.8533C77.961 30.8442 77.961 30.8442 77.9518 30.835C77.3379 29.0755 75.771 27.5634 74.2591 26.0971C73.1687 25.0432 72.1424 24.0443 71.6293 23.1003C71.0978 22.1289 71.0336 21.0384 70.9603 19.8928C70.8779 18.4907 70.7863 17.0427 69.7966 15.8055C68.7887 14.5409 67.0752 13.7986 65.4167 13.0746C64.2346 12.5614 63.1167 12.0757 62.4295 11.4708C61.7239 10.8568 61.3208 9.97705 60.8901 9.05146C60.3403 7.8601 59.763 6.63208 58.5077 5.88977C57.2523 5.14746 55.6213 5.09247 54.0452 5.04665C52.909 5.01 51.8278 4.97334 51.0306 4.68924C50.2334 4.39599 49.5278 3.76365 48.7765 3.09466C47.7868 2.21488 46.7697 1.29845 45.3953 1.06018C44.0208 0.821906 42.6555 1.33511 41.3269 1.82998C40.3464 2.19655 39.4209 2.53563 38.5962 2.5448C37.799 2.5448 36.8369 2.22405 35.8473 1.8758C34.5187 1.40842 33.1534 0.931878 31.788 1.18848C30.4227 1.44508 29.4423 2.37067 28.4893 3.26878C27.7746 3.94694 27.0965 4.57927 26.3177 4.8817C25.5388 5.17495 24.4667 5.22077 23.3397 5.25743C21.8003 5.31242 20.2059 5.3674 18.9963 6.10055C17.7777 6.84286 17.2554 8.05255 16.7606 9.22558C16.3757 10.1237 16.0183 10.9668 15.3678 11.5441C14.7172 12.1215 13.6268 12.5797 12.4722 13.0654C10.887 13.7344 9.2468 14.4217 8.31216 15.6039C7.37753 16.7861 7.37752 18.1608 7.36836 19.4804C7.3592 20.5252 7.3592 21.5149 6.90104 22.3764C6.45205 23.2286 5.48076 24.1451 4.44533 25.1165C3.02505 26.4453 1.54979 27.8291 1.03665 29.4329C1.03665 29.442 1.02749 29.4604 1.02749 29.4695C1.00916 29.552 1 29.6437 1 29.7261C1.00916 29.7994 1.01833 29.8728 1.04582 29.9461C1.05498 29.9644 1.06414 29.9827 1.07331 30.0102C7.38669 43.7933 13.8009 54.1673 20.2517 61.0956C18.4099 63.6341 17.7685 67.0249 18.1167 69.2335L18.135 69.3343C18.5565 70.7547 19.3995 71.7811 20.6457 72.386C21.4979 72.7984 22.515 73 23.7245 73C26.0611 73 29.0941 72.2302 32.8785 70.6906C33.0434 70.6264 33.1625 70.4981 33.245 70.3607C35.3158 71.0847 37.3775 71.4604 39.4484 71.4787C39.4942 71.4787 39.54 71.4787 39.595 71.4787C41.8217 71.4787 44.0483 71.0572 46.2749 70.2415C46.3482 70.4432 46.4948 70.6081 46.7056 70.6906C50.49 72.2302 53.523 73 55.8595 73C57.0691 73 58.0953 72.7984 58.9384 72.386C60.1845 71.7903 61.0275 70.7639 61.449 69.3343L61.4857 69.2335C61.8522 66.9791 61.1741 63.4691 59.2316 60.9214C65.4808 54.2407 71.7209 44.3982 77.9151 31.4307C77.961 31.3391 77.9885 31.2382 77.9976 31.1374ZM21.3238 70.9655C20.4991 70.5715 19.9493 69.9025 19.6469 68.9402C19.3812 67.1623 19.8943 64.3764 21.3329 62.2503C24.6683 65.6227 28.0128 68.0696 31.3665 69.6C26.6201 71.4237 23.248 71.882 21.3238 70.9655ZM59.9463 68.931C59.6439 69.9025 59.1033 70.5623 58.2694 70.9564C56.3269 71.8911 52.8815 71.4054 48.0251 69.5084C51.3879 67.9505 54.76 65.4669 58.1228 62.067C59.6622 64.2114 60.2212 67.1073 59.9463 68.931ZM39.595 69.9025C39.5492 69.9025 39.5034 69.9025 39.4667 69.9025C27.2706 69.8017 14.8729 56.2568 2.63103 29.6437C3.11668 28.5164 4.33537 27.3709 5.51741 26.2529C6.19548 25.6114 6.84606 24.9974 7.38669 24.3742C12.0324 36.077 18.0984 47.4316 23.752 54.9463C23.9078 55.1479 24.146 55.2579 24.3843 55.2579C24.5492 55.2579 24.7141 55.2029 24.8516 55.1021C25.1998 54.8455 25.2639 54.3506 25.0073 54.0024C19.2621 46.3685 13.0861 34.7115 8.44045 22.7613C8.91693 21.6615 8.92609 20.5068 8.92609 19.4804C8.93525 18.3257 8.93525 17.3268 9.53086 16.5662C10.2089 15.7047 11.6567 15.0907 13.0587 14.5042C13.8925 14.156 14.6897 13.8077 15.3861 13.4045C17.2462 20.6351 19.2163 27.3068 21.2596 33.2361C21.3696 33.566 21.672 33.7676 22.0018 33.7676C22.0843 33.7676 22.1759 33.7493 22.2584 33.7218C22.6708 33.5843 22.8907 33.1353 22.7441 32.7229C20.6549 26.6469 18.639 19.8012 16.7422 12.3598C17.4295 11.5991 17.8326 10.6735 18.19 9.83042C18.6298 8.80402 19.0147 7.91508 19.8027 7.42937C20.664 6.90701 22.0477 6.86119 23.3855 6.81536C24.2285 6.78787 25.099 6.75121 25.887 6.59542C27.5455 25.4281 30.8992 43.051 34.4912 51.693C34.6195 51.9954 34.9127 52.1787 35.2151 52.1787C35.3159 52.1787 35.4166 52.1604 35.5174 52.1145C35.9206 51.9496 36.1039 51.4914 35.9389 51.0881C32.3836 42.5287 29.0483 24.9057 27.4172 6.07306C28.2236 5.64233 28.9017 5.01916 29.5523 4.40515C30.3769 3.62618 31.1558 2.89304 32.0721 2.71892C33.0159 2.53563 34.1338 2.9297 35.3158 3.34209C36.1863 3.64451 37.0752 3.94694 37.9731 4.04774V50.0068C37.9731 50.4375 38.3213 50.7949 38.7612 50.7949C39.201 50.7949 39.5492 50.4466 39.5492 50.0068V4.00192C40.3372 3.85529 41.1161 3.5712 41.8766 3.28711C43.0587 2.84722 44.1674 2.43483 45.1295 2.59978C46.0642 2.75558 46.8705 3.48872 47.7319 4.24936C48.5199 4.95501 49.3354 5.66983 50.3525 6.08222C50.0868 9.17976 49.7661 12.2773 49.3995 15.3198C49.3446 15.7506 49.6561 16.1446 50.0868 16.1905C50.1143 16.1905 50.1509 16.1996 50.1784 16.1996C50.5724 16.1996 50.9115 15.9064 50.9573 15.5031C51.3146 12.5247 51.6262 9.49134 51.8919 6.45796C52.57 6.5496 53.2847 6.57709 53.9903 6.59542C55.3647 6.64124 56.7942 6.68706 57.7013 7.21859C58.5352 7.71347 58.9658 8.6299 59.4606 9.69296C59.8547 10.5452 60.3037 11.4983 61.0367 12.2865C56.2536 31.0366 50.8107 45.6445 45.6885 53.4617C45.4502 53.8283 45.551 54.314 45.9176 54.5523C46.055 54.6347 46.2016 54.6806 46.3482 54.6806C46.6048 54.6806 46.8522 54.5523 47.008 54.3231C52.1576 46.4602 57.6097 31.9256 62.3928 13.3404C63.1076 13.7619 63.9322 14.1285 64.7936 14.5042C66.278 15.1457 67.8082 15.8147 68.5688 16.7678C69.2468 17.6109 69.311 18.7106 69.3935 19.9661C69.4393 20.6443 69.4851 21.3683 69.6409 22.1106C69.5676 22.1839 69.5126 22.2756 69.4668 22.3764C64.7844 34.5007 58.5168 46.3319 52.6983 54.0299C52.4325 54.3781 52.5058 54.873 52.854 55.1296C52.9915 55.2396 53.1656 55.2854 53.3305 55.2854C53.5688 55.2854 53.807 55.1754 53.9536 54.9738C59.6531 47.4224 65.774 35.9854 70.4472 24.1726C71.0978 25.199 72.1057 26.1796 73.1687 27.2151C74.4515 28.4615 75.7801 29.7536 76.3574 31.0641C63.9964 56.8342 51.6262 69.9025 39.595 69.9025ZM51.6445 56.6325C51.9744 56.9166 52.0019 57.4115 51.7178 57.7414L51.4246 58.0713C51.2688 58.2455 51.0581 58.3279 50.8382 58.3279C50.6549 58.3279 50.4625 58.2638 50.3159 58.1263C49.9951 57.8331 49.9677 57.3382 50.2609 57.0174L50.5358 56.7059C50.8198 56.3851 51.3146 56.3485 51.6445 56.6325ZM27.7288 57.3199C28.0312 57.6315 28.0128 58.1355 27.7013 58.4288C27.5455 58.5754 27.3531 58.6395 27.1607 58.6395C26.9499 58.6395 26.7483 58.5571 26.5926 58.3921C26.3543 58.1447 26.3177 58.0988 26.1986 57.9522L25.9878 57.7139C25.7037 57.384 25.7404 56.8892 26.0703 56.6051C26.4001 56.321 26.895 56.3576 27.179 56.6875L27.3989 56.9441C27.4997 57.0633 27.5272 57.1091 27.7288 57.3199ZM32.3928 53.9841C32.6402 54.3415 32.5394 54.8363 32.1821 55.0746C32.0446 55.1663 31.898 55.2121 31.7422 55.2121C31.4948 55.2121 31.2474 55.0929 31.0917 54.8638C28.2511 50.6666 25.3464 44.5082 22.4417 36.5535C22.2951 36.1503 22.5058 35.6921 22.909 35.5455C23.3213 35.3988 23.7703 35.6096 23.9169 36.0129C26.7758 43.8483 29.6256 49.8876 32.3928 53.9841ZM50.5174 19.0039C48.6848 32.8512 45.9725 45.0763 43.2603 51.7113C43.132 52.0137 42.8388 52.197 42.5364 52.197C42.4356 52.197 42.3348 52.1787 42.2432 52.142C41.84 51.9771 41.6476 51.5189 41.8125 51.1156C44.479 44.5998 47.1546 32.5212 48.9689 18.8023C49.0239 18.3716 49.427 18.0691 49.8485 18.1241C50.27 18.1791 50.5724 18.5732 50.5174 19.0039Z" fill="white"/>
<path d="M77.9976 31.1374C78.0068 31.0458 77.9885 30.945 77.961 30.8533C77.961 30.8442 77.961 30.8442 77.9518 30.835C77.3379 29.0755 75.771 27.5634 74.2591 26.0971C73.1687 25.0432 72.1424 24.0443 71.6293 23.1003C71.0978 22.1289 71.0336 21.0384 70.9603 19.8928C70.8779 18.4907 70.7863 17.0427 69.7966 15.8055C68.7887 14.5409 67.0752 13.7986 65.4167 13.0746C64.2346 12.5614 63.1167 12.0757 62.4295 11.4708C61.7239 10.8568 61.3208 9.97705 60.8901 9.05146C60.3403 7.8601 59.763 6.63208 58.5077 5.88977C57.2523 5.14746 55.6213 5.09247 54.0452 5.04665C52.909 5.01 51.8278 4.97334 51.0306 4.68924C50.2334 4.39599 49.5278 3.76365 48.7765 3.09466C47.7868 2.21488 46.7697 1.29845 45.3953 1.06018C44.0208 0.821906 42.6555 1.33511 41.3269 1.82998C40.3464 2.19655 39.4209 2.53563 38.5962 2.5448C37.799 2.5448 36.8369 2.22405 35.8473 1.8758C34.5187 1.40842 33.1534 0.931878 31.788 1.18848C30.4227 1.44508 29.4423 2.37067 28.4893 3.26878C27.7746 3.94694 27.0965 4.57927 26.3177 4.8817C25.5388 5.17495 24.4667 5.22077 23.3397 5.25743C21.8003 5.31242 20.2059 5.3674 18.9963 6.10055C17.7777 6.84286 17.2554 8.05255 16.7606 9.22558C16.3757 10.1237 16.0183 10.9668 15.3678 11.5441C14.7172 12.1215 13.6268 12.5797 12.4722 13.0654C10.887 13.7344 9.2468 14.4217 8.31216 15.6039C7.37753 16.7861 7.37752 18.1608 7.36836 19.4804C7.3592 20.5252 7.3592 21.5149 6.90104 22.3764C6.45205 23.2286 5.48076 24.1451 4.44533 25.1165C3.02505 26.4453 1.54979 27.8291 1.03665 29.4329C1.03665 29.442 1.02749 29.4604 1.02749 29.4695C1.00916 29.552 1 29.6437 1 29.7261C1.00916 29.7994 1.01833 29.8728 1.04582 29.9461C1.05498 29.9644 1.06414 29.9827 1.07331 30.0102C7.38669 43.7933 13.8009 54.1673 20.2517 61.0956C18.4099 63.6341 17.7685 67.0249 18.1167 69.2335L18.135 69.3343C18.5565 70.7547 19.3995 71.7811 20.6457 72.386C21.4979 72.7984 22.515 73 23.7245 73C26.0611 73 29.0941 72.2302 32.8785 70.6906C33.0434 70.6264 33.1625 70.4981 33.245 70.3607C35.3158 71.0847 37.3775 71.4604 39.4484 71.4787C39.4942 71.4787 39.54 71.4787 39.595 71.4787C41.8217 71.4787 44.0483 71.0572 46.2749 70.2415C46.3482 70.4432 46.4948 70.6081 46.7056 70.6906C50.49 72.2302 53.523 73 55.8595 73C57.0691 73 58.0953 72.7984 58.9384 72.386C60.1845 71.7903 61.0275 70.7639 61.449 69.3343L61.4857 69.2335C61.8522 66.9791 61.1741 63.4691 59.2316 60.9214C65.4808 54.2407 71.7209 44.3982 77.9151 31.4307C77.961 31.3391 77.9885 31.2382 77.9976 31.1374ZM21.3238 70.9655C20.4991 70.5715 19.9493 69.9025 19.6469 68.9402C19.3812 67.1623 19.8943 64.3764 21.3329 62.2503C24.6683 65.6227 28.0128 68.0696 31.3665 69.6C26.6201 71.4237 23.248 71.882 21.3238 70.9655ZM59.9463 68.931C59.6439 69.9025 59.1033 70.5623 58.2694 70.9564C56.3269 71.8911 52.8815 71.4054 48.0251 69.5084C51.3879 67.9505 54.76 65.4669 58.1228 62.067C59.6622 64.2114 60.2212 67.1073 59.9463 68.931ZM39.595 69.9025C39.5492 69.9025 39.5034 69.9025 39.4667 69.9025C27.2706 69.8017 14.8729 56.2568 2.63103 29.6437C3.11668 28.5164 4.33537 27.3709 5.51741 26.2529C6.19548 25.6114 6.84606 24.9974 7.38669 24.3742C12.0324 36.077 18.0984 47.4316 23.752 54.9463C23.9078 55.1479 24.146 55.2579 24.3843 55.2579C24.5492 55.2579 24.7141 55.2029 24.8516 55.1021C25.1998 54.8455 25.2639 54.3506 25.0073 54.0024C19.2621 46.3685 13.0861 34.7115 8.44045 22.7613C8.91693 21.6615 8.92609 20.5068 8.92609 19.4804C8.93525 18.3257 8.93525 17.3268 9.53086 16.5662C10.2089 15.7047 11.6567 15.0907 13.0587 14.5042C13.8925 14.156 14.6897 13.8077 15.3861 13.4045C17.2462 20.6351 19.2163 27.3068 21.2596 33.2361C21.3696 33.566 21.672 33.7676 22.0018 33.7676C22.0843 33.7676 22.1759 33.7493 22.2584 33.7218C22.6708 33.5843 22.8907 33.1353 22.7441 32.7229C20.6549 26.6469 18.639 19.8012 16.7422 12.3598C17.4295 11.5991 17.8326 10.6735 18.19 9.83042C18.6298 8.80402 19.0147 7.91508 19.8027 7.42937C20.664 6.90701 22.0477 6.86119 23.3855 6.81536C24.2285 6.78787 25.099 6.75121 25.887 6.59542C27.5455 25.4281 30.8992 43.051 34.4912 51.693C34.6195 51.9954 34.9127 52.1787 35.2151 52.1787C35.3159 52.1787 35.4166 52.1604 35.5174 52.1145C35.9206 51.9496 36.1039 51.4914 35.9389 51.0881C32.3836 42.5287 29.0483 24.9057 27.4172 6.07306C28.2236 5.64233 28.9017 5.01916 29.5523 4.40515C30.3769 3.62618 31.1558 2.89304 32.0721 2.71892C33.0159 2.53563 34.1338 2.9297 35.3158 3.34209C36.1863 3.64451 37.0752 3.94694 37.9731 4.04774V50.0068C37.9731 50.4375 38.3213 50.7949 38.7612 50.7949C39.201 50.7949 39.5492 50.4466 39.5492 50.0068V4.00192C40.3372 3.85529 41.1161 3.5712 41.8766 3.28711C43.0587 2.84722 44.1674 2.43483 45.1295 2.59978C46.0642 2.75558 46.8705 3.48872 47.7319 4.24936C48.5199 4.95501 49.3354 5.66983 50.3525 6.08222C50.0868 9.17976 49.7661 12.2773 49.3995 15.3198C49.3446 15.7506 49.6561 16.1446 50.0868 16.1905C50.1143 16.1905 50.1509 16.1996 50.1784 16.1996C50.5724 16.1996 50.9115 15.9064 50.9573 15.5031C51.3146 12.5247 51.6262 9.49134 51.8919 6.45796C52.57 6.5496 53.2847 6.57709 53.9903 6.59542C55.3647 6.64124 56.7942 6.68706 57.7013 7.21859C58.5352 7.71347 58.9658 8.6299 59.4606 9.69296C59.8547 10.5452 60.3037 11.4983 61.0367 12.2865C56.2536 31.0366 50.8107 45.6445 45.6885 53.4617C45.4502 53.8283 45.551 54.314 45.9176 54.5523C46.055 54.6347 46.2016 54.6806 46.3482 54.6806C46.6048 54.6806 46.8522 54.5523 47.008 54.3231C52.1576 46.4602 57.6097 31.9256 62.3928 13.3404C63.1076 13.7619 63.9322 14.1285 64.7936 14.5042C66.278 15.1457 67.8082 15.8147 68.5688 16.7678C69.2468 17.6109 69.311 18.7106 69.3935 19.9661C69.4393 20.6443 69.4851 21.3683 69.6409 22.1106C69.5676 22.1839 69.5126 22.2756 69.4668 22.3764C64.7844 34.5007 58.5168 46.3319 52.6983 54.0299C52.4325 54.3781 52.5058 54.873 52.854 55.1296C52.9915 55.2396 53.1656 55.2854 53.3305 55.2854C53.5688 55.2854 53.807 55.1754 53.9536 54.9738C59.6531 47.4224 65.774 35.9854 70.4472 24.1726C71.0978 25.199 72.1057 26.1796 73.1687 27.2151C74.4515 28.4615 75.7801 29.7536 76.3574 31.0641C63.9964 56.8342 51.6262 69.9025 39.595 69.9025ZM51.6445 56.6325C51.9744 56.9166 52.0019 57.4115 51.7178 57.7414L51.4246 58.0713C51.2688 58.2455 51.0581 58.3279 50.8382 58.3279C50.6549 58.3279 50.4625 58.2638 50.3159 58.1263C49.9951 57.8331 49.9677 57.3382 50.2609 57.0174L50.5358 56.7059C50.8198 56.3851 51.3146 56.3485 51.6445 56.6325ZM27.7288 57.3199C28.0312 57.6315 28.0128 58.1355 27.7013 58.4288C27.5455 58.5754 27.3531 58.6395 27.1607 58.6395C26.9499 58.6395 26.7483 58.5571 26.5926 58.3921C26.3543 58.1447 26.3177 58.0988 26.1986 57.9522L25.9878 57.7139C25.7037 57.384 25.7404 56.8892 26.0703 56.6051C26.4001 56.321 26.895 56.3576 27.179 56.6875L27.3989 56.9441C27.4997 57.0633 27.5272 57.1091 27.7288 57.3199ZM32.3928 53.9841C32.6402 54.3415 32.5394 54.8363 32.1821 55.0746C32.0446 55.1663 31.898 55.2121 31.7422 55.2121C31.4948 55.2121 31.2474 55.0929 31.0917 54.8638C28.2511 50.6666 25.3464 44.5082 22.4417 36.5535C22.2951 36.1503 22.5058 35.6921 22.909 35.5455C23.3213 35.3988 23.7703 35.6096 23.9169 36.0129C26.7758 43.8483 29.6256 49.8876 32.3928 53.9841ZM50.5174 19.0039C48.6848 32.8512 45.9725 45.0763 43.2603 51.7113C43.132 52.0137 42.8388 52.197 42.5364 52.197C42.4356 52.197 42.3348 52.1787 42.2432 52.142C41.84 51.9771 41.6476 51.5189 41.8125 51.1156C44.479 44.5998 47.1546 32.5212 48.9689 18.8023C49.0239 18.3716 49.427 18.0691 49.8485 18.1241C50.27 18.1791 50.5724 18.5732 50.5174 19.0039Z" stroke="white" stroke-width="0.6" mask="url(#path-1-outside-1_362_766)"/>
</g>
</svg>
